<svg width="256" height="120" viewBox="0 0 256 120" fill="none" xmlns="http://www.w3.org/2000/svg">
<mask id="mask0_3_36" style="mask-type:alpha" maskUnits="userSpaceOnUse" x="0" y="0" width="256" height="120">
<rect width="256" height="120" fill="#F8F9FA"/>
</mask>
<g mask="url(#mask0_3_36)">
<rect x="140.295" y="137.085" width="17.569" height="75.7362" transform="rotate(135.572 140.295 137.085)" fill="#4FA9BF"/>
</g>
<path fill-rule="evenodd" clip-rule="evenodd" d="M98.7213 70.2849C99.5579 66.6583 100 62.8808 100 59C100 58.1957 99.981 57.3958 99.9435 56.6008C99.9759 56.6003 100.008 56.6 100.041 56.6C101.135 56.6 101.921 56.8667 102.401 57.4C102.881 57.9067 103.121 58.7467 103.121 59.92V73H110.881V69.52H109.841C109.308 69.52 108.921 69.4 108.681 69.16C108.468 68.92 108.361 68.5467 108.361 68.04V59.88C108.361 57.6933 107.841 56.04 106.801 54.92C105.761 53.7733 104.121 53.2 101.881 53.2C101.101 53.2 100.37 53.2613 99.6881 53.384C96.8971 28.4134 75.7157 9 50 9C22.3858 9 0 31.3858 0 59C0 86.6142 22.3858 109 50 109C72.7545 109 91.9588 93.8002 98.0135 73H98.7213V70.2849ZM98.7213 70.2849V69.52H97.6813C97.1479 69.52 96.7613 69.4 96.5212 69.16C96.3079 68.92 96.2012 68.5467 96.2012 68.04V60.32C96.2012 59.1467 96.5479 58.24 97.2412 57.6C97.9407 56.9524 98.8414 56.6193 99.9435 56.6008C99.8923 55.5192 99.8069 54.4466 99.6881 53.384C98.9481 53.5171 98.2658 53.7224 97.6413 54C96.4679 54.5333 95.4413 55.3467 94.5612 56.44L94.3213 53.8H88.3613V57.28H89.4812C90.0146 57.28 90.3879 57.4 90.6012 57.64C90.8412 57.88 90.9613 58.2533 90.9613 58.76V67.96C90.9613 68.4933 90.8412 68.8933 90.6012 69.16C90.3613 69.4 89.9613 69.52 89.4013 69.52H88.3613V73H98.0135C98.274 72.1051 98.5102 71.1998 98.7213 70.2849ZM50 96.5C29.2893 96.5 12.5 79.7107 12.5 59C12.5 38.2893 29.2893 21.5 50 21.5C70.7107 21.5 87.5 38.2893 87.5 59C87.5 79.7107 70.7107 96.5 50 96.5ZM20.2481 73C21.7148 73.4 23.2348 73.6 24.8081 73.6C27.5281 73.6 29.5815 73.1467 30.9681 72.24C32.3815 71.3067 33.0881 69.96 33.0881 68.2C33.0881 67.08 32.8348 66.16 32.3281 65.44C31.8481 64.6933 31.1948 64.08 30.3681 63.6C29.5415 63.0933 28.4481 62.5867 27.0881 62.08L25.8081 61.6C24.4215 61.0933 23.4081 60.6533 22.7681 60.28C22.1281 59.88 21.8081 59.3467 21.8081 58.68C21.8081 57.96 22.0881 57.4667 22.6481 57.2C23.2348 56.9067 24.0348 56.76 25.0481 56.76C26.3015 56.76 27.2748 57.0133 27.9681 57.52V58.96H32.6481V55.6C31.6081 54.8 30.3948 54.2 29.0081 53.8C27.6215 53.4 26.1281 53.2 24.5281 53.2C22.0748 53.2 20.1415 53.6667 18.7281 54.6C17.3148 55.5067 16.6081 56.8667 16.6081 58.68C16.6081 59.7467 16.8615 60.6533 17.3681 61.4C17.8748 62.12 18.5415 62.7333 19.3681 63.24C20.2215 63.72 21.3548 64.2533 22.7681 64.84L24.6081 65.56C25.9148 66.0667 26.7815 66.48 27.2081 66.8C27.6615 67.12 27.8881 67.5867 27.8881 68.2C27.8881 68.8933 27.6215 69.3733 27.0881 69.64C26.5548 69.9067 25.7148 70.04 24.5681 70.04C23.1015 70.04 21.9948 69.8 21.2481 69.32V67.8H16.4081V71.16C17.5015 71.9867 18.7815 72.6 20.2481 73ZM39.3006 72.48C40.9006 73.2267 42.714 73.6 44.7406 73.6C46.6073 73.6 48.1273 73.4267 49.3006 73.08C50.474 72.76 51.6606 72.1733 52.8606 71.32L51.1006 68.44C50.3273 68.9733 49.5006 69.3733 48.6206 69.64C47.7673 69.9067 46.794 70.04 45.7006 70.04C43.8073 70.04 42.2873 69.5067 41.1406 68.44C39.994 67.3733 39.4206 65.76 39.4206 63.6C39.4206 61.3333 39.914 59.6267 40.9006 58.48C41.8873 57.3333 43.154 56.76 44.7006 56.76C45.474 56.76 46.114 56.8267 46.6206 56.96C47.154 57.0933 47.6873 57.3067 48.2206 57.6V59.92H52.7406V55.72C51.594 54.84 50.4206 54.2 49.2206 53.8C48.0206 53.4 46.514 53.2 44.7006 53.2C41.4473 53.2 38.8873 54.1067 37.0206 55.92C35.154 57.7333 34.2206 60.2933 34.2206 63.6C34.2206 65.7333 34.674 67.56 35.5806 69.08C36.4873 70.5733 37.7273 71.7067 39.3006 72.48ZM62.5219 46.68H57.0019V50.92H62.5219V46.68ZM55.6419 69.52H54.6019V73H64.9619V69.52H63.9219C63.3885 69.52 63.0019 69.4 62.7619 69.16C62.5485 68.92 62.4419 68.5467 62.4419 68.04V53.8H54.6019V57.28H55.7219C56.3085 57.28 56.6952 57.4133 56.8819 57.68C57.0952 57.9467 57.2019 58.3733 57.2019 58.96V67.96C57.2019 68.4933 57.0819 68.8933 56.8419 69.16C56.6019 69.4 56.2019 69.52 55.6419 69.52ZM69.4406 71.08C71.2806 72.76 73.8006 73.6 77.0006 73.6C80.654 73.6 83.494 72.7467 85.5206 71.04V68H81.0006V69.4C80.014 69.8267 78.694 70.04 77.0406 70.04C75.3873 70.04 74.1206 69.6133 73.2406 68.76C72.3606 67.88 71.9206 66.5067 71.9206 64.64H86.2006V62.76C86.2006 59.8267 85.3873 57.5067 83.7606 55.8C82.1606 54.0667 79.814 53.2 76.7206 53.2C73.5206 53.2 71.054 54.0667 69.3206 55.8C67.5873 57.5333 66.7206 60.1333 66.7206 63.6C66.7206 66.88 67.6273 69.3733 69.4406 71.08ZM79.9206 57.96C80.6406 58.76 81.0006 59.9867 81.0006 61.64H71.9206C71.9206 60.0667 72.3206 58.8667 73.1206 58.04C73.9473 57.1867 75.1206 56.76 76.6406 56.76C78.1073 56.76 79.2006 57.16 79.9206 57.96ZM115.732 71.92C116.985 73.04 118.839 73.6 121.292 73.6C124.252 73.6 126.559 72.7733 128.212 71.12V67.76H123.972V69.48C123.412 69.96 122.625 70.2 121.612 70.2C120.785 70.2 120.159 69.9733 119.732 69.52C119.332 69.0667 119.132 68.3467 119.132 67.36V57.28H124.612V53.8H119.132V48.12L113.892 49.68V53.8H110.852V57.28H113.892V66.96C113.892 69.12 114.505 70.7733 115.732 71.92ZM136.702 46.68H131.182V50.92H136.702V46.68ZM129.822 69.52H128.782V73H139.142V69.52H138.102C137.568 69.52 137.182 69.4 136.942 69.16C136.728 68.92 136.622 68.5467 136.622 68.04V53.8H128.782V57.28H129.902C130.488 57.28 130.875 57.4133 131.062 57.68C131.275 57.9467 131.382 58.3733 131.382 58.96V67.96C131.382 68.4933 131.262 68.8933 131.022 69.16C130.782 69.4 130.382 69.52 129.822 69.52ZM141.98 69.52H140.94V73H151.3V69.52H150.26C149.727 69.52 149.34 69.4 149.1 69.16C148.887 68.92 148.78 68.5467 148.78 68.04V57.28H154.26V73H162.22V69.44H161.14C160.127 69.44 159.62 68.9467 159.62 67.96V53.8H148.78V52.12C148.78 51.1867 149.06 50.4933 149.62 50.04C150.18 49.56 150.967 49.32 151.98 49.32C153.18 49.32 154.074 49.56 154.66 50.04V51.56H159.62V48.24C157.754 46.6933 155.18 45.92 151.9 45.92C149.207 45.92 147.14 46.52 145.7 47.72C144.26 48.8933 143.54 50.5467 143.54 52.68V53.8H140.5V57.28H143.54V67.96C143.54 68.4933 143.42 68.8933 143.18 69.16C142.94 69.4 142.54 69.52 141.98 69.52ZM169.066 72.48C170.666 73.2267 172.48 73.6 174.506 73.6C176.373 73.6 177.893 73.4267 179.066 73.08C180.24 72.76 181.426 72.1733 182.626 71.32L180.866 68.44C180.093 68.9733 179.266 69.3733 178.386 69.64C177.533 69.9067 176.56 70.04 175.466 70.04C173.573 70.04 172.053 69.5067 170.906 68.44C169.76 67.3733 169.186 65.76 169.186 63.6C169.186 61.3333 169.68 59.6267 170.666 58.48C171.653 57.3333 172.92 56.76 174.466 56.76C175.24 56.76 175.88 56.8267 176.386 56.96C176.92 57.0933 177.453 57.3067 177.986 57.6V59.92H182.506V55.72C181.36 54.84 180.186 54.2 178.986 53.8C177.786 53.4 176.28 53.2 174.466 53.2C171.213 53.2 168.653 54.1067 166.786 55.92C164.92 57.7333 163.986 60.2933 163.986 63.6C163.986 65.7333 164.44 67.56 165.346 69.08C166.253 70.5733 167.493 71.7067 169.066 72.48ZM185.657 72.2C186.804 73.1333 188.484 73.6 190.697 73.6C192.537 73.6 194.004 73.3867 195.097 72.96C196.19 72.5067 197.204 71.72 198.137 70.6L198.657 73H203.617V69.52H202.857C202.404 69.52 202.07 69.4 201.857 69.16C201.67 68.92 201.577 68.5467 201.577 68.04V60.08C201.577 57.9467 200.924 56.2667 199.617 55.04C198.337 53.8133 196.297 53.2 193.497 53.2C190.617 53.2 188.017 53.92 185.697 55.36V59.04H190.217V57.48C191.07 57 192.11 56.76 193.337 56.76C194.404 56.76 195.164 56.9733 195.617 57.4C196.07 57.8267 196.297 58.5467 196.297 59.56V61.92L191.377 62.24C188.977 62.3733 187.137 62.92 185.857 63.88C184.604 64.8133 183.977 66.2533 183.977 68.2C183.977 69.9333 184.537 71.2667 185.657 72.2ZM195.137 69.28C194.364 69.8933 193.284 70.2 191.897 70.2C189.897 70.2 188.897 69.4133 188.897 67.84C188.897 66.96 189.11 66.3333 189.537 65.96C189.964 65.56 190.737 65.32 191.857 65.24L196.297 64.92V66.56C196.297 67.76 195.91 68.6667 195.137 69.28ZM206.432 69.52H205.393V73H215.753V69.52H214.712C214.179 69.52 213.792 69.4 213.553 69.16C213.339 68.92 213.232 68.5467 213.232 68.04V46.52H205.393V50H206.512C207.099 50 207.486 50.1333 207.673 50.4C207.886 50.6667 207.992 51.0933 207.992 51.68V67.96C207.992 68.4933 207.872 68.8933 207.633 69.16C207.393 69.4 206.992 69.52 206.432 69.52ZM222.102 69.12H217.902V73H222.102V69.12ZM225.69 69.52H224.65V73H235.01V69.52H233.97C233.437 69.52 233.05 69.4 232.81 69.16C232.597 68.92 232.49 68.5467 232.49 68.04V46.52H224.65V50H225.77C226.357 50 226.744 50.1333 226.93 50.4C227.144 50.6667 227.25 51.0933 227.25 51.68V67.96C227.25 68.4933 227.13 68.8933 226.89 69.16C226.65 69.4 226.25 69.52 225.69 69.52ZM242.624 80.28C244.011 80.76 245.557 81 247.264 81C249.877 81 251.944 80.2133 253.464 78.64C255.011 77.0667 255.784 74.9733 255.784 72.36V53.8H247.864V57.28H248.904C249.917 57.28 250.424 57.7733 250.424 58.76V65.52C250.424 66.7733 250.077 67.7333 249.384 68.4C248.717 69.0667 247.797 69.4 246.624 69.4C244.357 69.4 243.224 68.2933 243.224 66.08V53.8H235.344V57.28H236.384C237.397 57.28 237.904 57.7733 237.904 58.76V65.88C237.904 68.0667 238.584 69.7733 239.944 71C241.331 72.2 243.224 72.8 245.624 72.8C247.624 72.8 249.344 72.24 250.784 71.12V73.28C250.784 76.16 249.557 77.6 247.104 77.6C246.277 77.6 245.584 77.52 245.024 77.36C244.491 77.2267 244.024 76.9733 243.624 76.6V75.2H239.104V78.2C240.064 79.1067 241.237 79.8 242.624 80.28Z" fill="#4FA9BF"/>
</svg>
